:version 1.10
:name ASF
:units
  mass 1
  length 1
  angle deg
:documentation
  ASF file generated by Kaydara
:root
  axis xyz
  order  tx ty tz rx ry rz
  position 0 0 0
  orientation 0 0 0
:bonedata
  begin
    id 1
    name SpineDummy
    direction 0.999998 -0.00179978 1.38929e-006
    length 3.60008
    axis 0 0 0 xyz
  end
  begin
    id 2
    name Spine
    direction 0.964365 0.262802 0.0305839
    length 8.13928
    axis 1.33928 -1.75354 15.2838 xyz
    dof rx ry rz
  end
  begin
    id 3
    name Spine1
    direction 0.811168 0.572065 0.12144
    length 7.14954
    axis 2.2224 -6.9761 35.2157 xyz
    dof rx ry rz
  end
  begin
    id 4
    name Neck
    direction 0 0 0
    length 0
    axis 2.2224 -6.9761 35.2157 xyz
    dof rx ry rz
  end
  begin
    id 5
    name HeadDummy
    direction 0.810939 0.572387 0.121455
    length 3.55534
    axis 2.2224 -6.9761 35.2157 xyz
  end
  begin
    id 6
    name Head
    direction 0.998226 -0.000232542 0.0595419
    length 7.35666
    axis -3.03688 -3.41352 -0.0133467 xyz
    dof rx ry rz
  end
  begin
    id 7
    name R_ClavicleDummy
    direction 0.531669 -0.194489 -0.824319
    length 2.49392
    axis 2.2224 -6.9761 35.2157 xyz
  end
  begin
    id 8
    name R_Clavicle
    direction -0.155119 0.0480802 -0.986725
    length 4.485
    axis -54.2764 80.6538 162.779 xyz
    dof rx ry rz
  end
  begin
    id 9
    name R_UpperArm
    direction -0.955567 0.200068 -0.216484
    length 10.1122
    axis -72.9943 12.5026 168.175 xyz
    dof rx ry rz
  end
  begin
    id 10
    name R_Forearm
    direction -0.61433 0.385743 0.688332
    length 9.39148
    axis -117.015 -43.4982 147.875 xyz
    dof rx ry rz
  end
  begin
    id 11
    name R_Hand
    direction -0.699429 0.0170333 0.714499
    length 3.66324
    axis -45.0303 -36.7097 175.478 xyz
    dof rx ry rz
  end
  begin
    id 12
    name L_ClavicleDummy
    direction 0.40287 -0.36502 0.839319
    length 2.49392
    axis 2.2224 -6.9761 35.2157 xyz
  end
  begin
    id 13
    name L_Clavicle
    direction -0.231271 -0.0726419 0.970174
    length 4.485
    axis 18.4357 -75.9711 -162.563 xyz
    dof rx ry rz
  end
  begin
    id 14
    name L_UpperArm
    direction -0.917494 0.144359 0.370629
    length 10.1122
    axis 56.0417 -21.7544 171.058 xyz
    dof rx ry rz
  end
  begin
    id 15
    name L_Forearm
    direction -0.496786 0.615074 -0.612281
    length 9.39148
    axis 89.8094 37.7546 128.927 xyz
    dof rx ry rz
  end
  begin
    id 16
    name L_Hand
    direction -0.409932 0.64962 -0.640274
    length 3.66324
    axis -0.424369 32.133 128.52 xyz
    dof rx ry rz
  end
  begin
    id 17
    name L_ThighDummy
    direction -1.84081e-006 1.87549e-006 1
    length 3.13049
    axis 0 0 0 xyz
  end
  begin
    id 18
    name L_Thigh
    direction -0.947739 0.307978 0.083308
    length 17.9961
    axis 173.219 -4.77873 161.998 xyz
    dof rx ry rz
  end
  begin
    id 19
    name L_Calf
    direction -0.728814 -0.684427 0.0197583
    length 13.3367
    axis 167.331 -1.13214 -136.799 xyz
    dof rx ry rz
  end
  begin
    id 20
    name L_Foot
    direction -0.9028 0.418719 0.0981191
    length 5.8674
    axis 163.436 11.5135 -155.37 xyz
    dof rx ry rz
  end
  begin
    id 21
    name L_Toe0
    direction -0.35341 0.886259 0.299411
    length 4.75286
    axis 169.316 -17.4222 111.74 xyz
    dof rx ry rz
  end
  begin
    id 22
    name R_ThighDummy
    direction 9.32778e-007 -8.82053e-007 -1
    length 3.13049
    axis 0 0 0 xyz
  end
  begin
    id 23
    name R_Thigh
    direction -0.925064 0.37528 -0.0585023
    length 17.9961
    axis -178.698 3.35385 157.919 xyz
    dof rx ry rz
  end
  begin
    id 24
    name R_Calf
    direction -0.68969 -0.718776 -0.0876886
    length 13.3367
    axis -160.504 5.03065 -133.817 xyz
    dof rx ry rz
  end
  begin
    id 25
    name R_Foot
    direction -0.857405 0.418858 -0.299022
    length 5.8674
    axis -161.328 4.38911 -154.413 xyz
    dof rx ry rz
  end
  begin
    id 26
    name R_Toe0
    direction -0.100745 0.952789 -0.286433
    length 4.75286
    axis 171.683 16.6445 96.0359 xyz
    dof rx ry rz
  end
:hierarchy
  begin
    root SpineDummy L_ThighDummy R_ThighDummy
    SpineDummy Spine
    Spine Spine1
    Spine1 Neck
    Neck HeadDummy R_ClavicleDummy L_ClavicleDummy
    HeadDummy Head
    R_ClavicleDummy R_Clavicle
    R_Clavicle R_UpperArm
    R_UpperArm R_Forearm
    R_Forearm R_Hand
    L_ClavicleDummy L_Clavicle
    L_Clavicle L_UpperArm
    L_UpperArm L_Forearm
    L_Forearm L_Hand
    L_ThighDummy L_Thigh
    L_Thigh L_Calf
    L_Calf L_Foot
    L_Foot L_Toe0
    R_ThighDummy R_Thigh
    R_Thigh R_Calf
    R_Calf R_Foot
    R_Foot R_Toe0
  end

:SAMPLES-PER-SECOND 30
:FULLY-SPECIFIED
:DEGREES
190
root  0.741319 31.4838 41.6426 -105.811 12.0993 86.893
Spine  2.32672 3.83407 -1.04869
Spine1  1.7284 7.77564 3.28958
Neck  3.97569e-016 0 -2.38542e-015
Head  14.0597 0.404556 -8.23108
R_Clavicle  0.418532 -15.8326 2.0924
R_UpperArm  18.4422 13.3685 27.0887
R_Forearm  18.4805 -12.8503 10.9474
R_Hand  -0.300033 7.55871 -13.2504
L_Clavicle  -0.649092 19.3171 -3.22589
L_UpperArm  -8.36328 23.6169 28.8053
L_Forearm  -20.5687 22.45 28.4951
L_Hand  -0.932877 3.15673 -12.0109
L_Thigh  -0.57053 -5.538 27.8069
L_Calf  3.22467 -1.38814 9.90172
L_Foot  0.250172 2.08883 -1.15928
L_Toe0  0.505156 0.034906 -6.13609
R_Thigh  -0.201916 -3.12573 -16.9645
R_Calf  7.9743 6.90226 22.0585
R_Foot  2.89895 9.58703 -5.53251
R_Toe0  9.51641 -2.68044 -2.09601
191
root  0.665592 32.855 41.6449 -102.124 10.7696 85.5294
Spine  1.2119 2.24276 -3.35055
Spine1  1.09979 8.87343 3.39449
Neck  3.97569e-016 0 -2.38542e-015
Head  12.7878 -1.67318 -4.42311
R_Clavicle  0.426335 -17.5795 2.24106
R_UpperArm  10.1488 10.2358 30.5869
R_Forearm  18.1448 -20.7127 17.9145
R_Hand  -0.480111 6.31668 -14.1076
L_Clavicle  -0.586826 18.1782 -3.51865
L_UpperArm  -8.97789 25.5128 31.5202
L_Forearm  -18.4048 19.2832 23.8248
L_Hand  -0.800857 3.28278 -10.1562
L_Thigh  -1.62815 -7.2634 21.7534
L_Calf  5.10967 -1.62136 11.6408
L_Foot  -0.958562 -1.37747 -3.23643
L_Toe0  0.505156 0.0347844 -6.13609
R_Thigh  0.220246 -2.61556 -14.3907
R_Calf  3.86732 5.66604 17.9153
R_Foot  1.28649 1.19022 -9.8503
R_Toe0  8.05653 -1.33316 -11.7108
192
root  0.607409 33.8155 41.6317 -98.0321 8.96646 84.596
Spine  -0.4892 0.28542 -4.28089
Spine1  -0.242464 10.1467 3.12706
Neck  3.97569e-016 0 -2.38542e-015
Head  12.8729 -2.82479 -3.29079
R_Clavicle  0.426647 -19.2173 2.29166
R_UpperArm  7.19053 6.9912 34.076
R_Forearm  15.2647 -26.3578 20.7418
R_Hand  -0.662442 6.15676 -15.639
L_Clavicle  -0.551613 17.6728 -3.25412
L_UpperArm  -9.01788 25.1797 34.7085
L_Forearm  -17.376 15.3182 18.4326
L_Hand  -0.772161 3.34181 -9.72172
L_Thigh  -1.91336 -9.1072 15.5543
L_Calf  1.07519 -0.895966 6.33639
L_Foot  0.0185902 3.03139 -3.18759
L_Toe0  0.505156 0.0346894 -6.1361
R_Thigh  -0.597799 -0.959815 -11.6331
R_Calf  -3.17255 4.53715 14.2494
R_Foot  1.02937 0.852072 -7.21831
R_Toe0  -1.44525 -0.168623 -17.1913
193
root  0.563907 34.5217 41.6054 -94.0241 7.99615 84.6166
Spine  -1.91373 -0.716114 -5.51241
Spine1  -1.43919 11.5186 2.94346
Neck  3.97569e-016 0 -2.38542e-015
Head  13.152 -3.41617 -3.67754
R_Clavicle  0.425593 -21.1187 2.43572
R_UpperArm  12.1881 3.449 39.0586
R_Forearm  12.1145 -29.0633 20.4115
R_Hand  -0.686296 6.81751 -16.0858
L_Clavicle  -0.53735 17.7343 -2.12682
L_UpperArm  -8.91622 22.7376 35.8839
L_Forearm  -16.6586 12.2858 14.5569
L_Hand  -0.814353 3.61629 -9.9415
L_Thigh  -1.67975 -9.21898 8.84601
L_Calf  -3.35372 -0.359735 2.37855
L_Foot  1.07279 9.54557 -4.44981
L_Toe0  0.505156 0.0346137 -6.1361
R_Thigh  -1.10349 1.50222 -8.03361
R_Calf  -5.74234 4.83609 15.2356
R_Foot  1.67961 5.19865 -2.54046
R_Toe0  -1.88371 -0.273131 -17.3778
194
root  0.512733 35.0067 41.6681 -90.0396 7.98238 84.304
Spine  -3.01125 -1.77528 -7.39834
Spine1  -2.32391 12.5289 2.8321
Neck  3.97569e-016 0 -2.38542e-015
Head  12.2654 -3.78778 -3.58083
R_Clavicle  0.421259 -22.548 2.58876
R_UpperArm  15.0281 -1.55849 45.5064
R_Forearm  16.4755 -27.0237 20.6788
R_Hand  -0.645806 7.43609 -15.9783
L_Clavicle  -0.510318 17.5771 -0.810379
L_UpperArm  -9.087 19.2401 34.3806
L_Forearm  -14.7298 11.0294 12.9997
L_Hand  -0.789369 3.74921 -9.49716
L_Thigh  -1.48057 -8.74053 2.37528
L_Calf  -2.81603 -0.492475 3.29421
L_Foot  0.788525 12.4108 -7.34694
L_Toe0  0.505156 0.03455 -6.1361
R_Thigh  -0.592463 2.84597 -3.67065
R_Calf  -2.12188 6.61808 21.1161
R_Foot  2.18777 7.482 -0.237543
R_Toe0  -1.78853 -0.272788 -17.3235
195
root  0.419169 35.1842 41.8243 -85.9827 8.41614 83.335
Spine  -3.95229 -3.15278 -8.9069
Spine1  -3.25641 12.9026 1.81579
Neck  3.97569e-016 0 -2.38542e-015
Head  10.1949 -4.19526 -2.49231
R_Clavicle  0.417477 -23.1124 2.76484
R_UpperArm  17.7998 -7.77239 52.303
R_Forearm  22.2233 -24.4619 20.6848
R_Hand  -0.699211 7.29793 -16.3572
L_Clavicle  -0.473793 16.7169 -0.0397333
L_UpperArm  -9.31113 15.9203 31.6484
L_Forearm  -12.2328 10.8046 12.7252
L_Hand  -0.698355 3.7041 -8.42764
L_Thigh  -1.87511 -8.53963 -3.50454
L_Calf  0.69265 -1.09604 7.71302
L_Foot  -0.268337 11.2141 -10.2415
L_Toe0  0.505156 0.0344913 -6.1361
R_Thigh  0.927055 2.59459 0.830154
R_Calf  0.971419 8.93341 29.2755
R_Foot  1.7686 5.90251 -0.841932
R_Toe0  -1.78853 -0.272788 -17.3235
196
root  0.274887 35.0395 42.1069 -82.22 9.01439 82.5428
Spine  -4.84121 -3.91711 -9.67233
Spine1  -4.35089 12.4767 -0.0282402
Neck  3.97569e-016 0 -2.38542e-015
Head  8.06301 -4.54693 -1.17256
R_Clavicle  0.418083 -22.7141 3.10518
R_UpperArm  20.8009 -13.8139 57.996
R_Forearm  24.8131 -23.9159 20.6258
R_Hand  -0.708699 6.5733 -16.1999
L_Clavicle  -0.426427 15.0035 0.312894
L_UpperArm  -10.0721 13.5584 28.5969
L_Forearm  -10.4712 10.6354 12.5194
L_Hand  -0.646483 4.06172 -7.49158
L_Thigh  -3.35599 -8.01153 -8.85985
L_Calf  3.06225 -1.97719 14.2328
L_Foot  -1.18269 8.05318 -11.8312
L_Toe0  0.387257 0.0443966 -6.24092
R_Thigh  2.66769 1.82654 5.47441
R_Calf  -0.229737 11.2493 37.3571
R_Foot  1.88987 6.24119 -1.11694
R_Toe0  -1.78853 -0.272788 -17.3235
197
root  0.0811219 34.5165 42.4262 -78.4654 9.52342 81.4657
Spine  -6.07418 -4.88817 -10.1342
Spine1  -5.70248 11.6287 -1.31274
Neck  3.97569e-016 0 -2.38542e-015
Head  6.56525 -4.40843 -0.422187
R_Clavicle  0.433366 -21.3377 3.44685
R_UpperArm  23.201 -19.0651 61.988
R_Forearm  24.5101 -24.7427 20.9326
R_Hand  -0.519894 6.28565 -14.4322
L_Clavicle  -0.386407 12.9666 0.815578
L_UpperArm  -12.0253 11.4745 25.2896
L_Forearm  -9.64888 9.43178 11.0549
L_Hand  -0.651334 4.80266 -6.99521
L_Thigh  -5.81068 -7.65484 -14.1694
L_Calf  5.22877 -2.94397 21.6582
L_Foot  -1.28508 5.637 -10.826
L_Toe0  1.51277 -0.0458177 -5.27108
R_Thigh  2.37606 0.0995839 9.30681
R_Calf  -0.676719 14.2295 45.2432
R_Foot  2.87347 9.86849 0.53852
R_Toe0  -1.78853 -0.272788 -17.3235
